@startuml
skinparam fixCircleLabelOverlapping true
skinparam componentStyle uml2
component "io_github_georgwittberger_microserviceexample_cartservice\n\n\n\n\n\n" {
[io_github_georgwittberger_microserviceexample_cartservice_cart_CartService]
[io_github_georgwittberger_microserviceexample_cartservice_web_CartController]
portin " " as io_github_georgwittberger_microserviceexample_cartservice_requires_SPRING_APPLICATION_count_GET_
portin " " as io_github_georgwittberger_microserviceexample_cartservice_requires_SPRING_APPLICATION_add_GET_
portin " " as io_github_georgwittberger_microserviceexample_cartservice_requires_SPRING_APPLICATION_GET_2
[io_github_georgwittberger_microserviceexample_cartservice_web_CartController]..>[io_github_georgwittberger_microserviceexample_cartservice_cart_CartService] : requires
"io_github_georgwittberger_microserviceexample_cartservice_requires_SPRING_APPLICATION_count_GET_"--[io_github_georgwittberger_microserviceexample_cartservice_web_CartController]
"io_github_georgwittberger_microserviceexample_cartservice_requires_SPRING_APPLICATION_add_GET_"--[io_github_georgwittberger_microserviceexample_cartservice_web_CartController]
"io_github_georgwittberger_microserviceexample_cartservice_requires_SPRING_APPLICATION_GET_2"--[io_github_georgwittberger_microserviceexample_cartservice_web_CartController]
}
interface "SPRING-APPLICATION/[GET]$2" as interface.SPRING_APPLICATION_GET_2
interface.SPRING_APPLICATION_GET_2--"io_github_georgwittberger_microserviceexample_cartservice_requires_SPRING_APPLICATION_GET_2"
interface "SPRING-APPLICATION/add[GET]" as interface.SPRING_APPLICATION_add_GET_
interface.SPRING_APPLICATION_add_GET_--"io_github_georgwittberger_microserviceexample_cartservice_requires_SPRING_APPLICATION_add_GET_"
interface "SPRING-APPLICATION/count[GET]" as interface.SPRING_APPLICATION_count_GET_
interface.SPRING_APPLICATION_count_GET_--"io_github_georgwittberger_microserviceexample_cartservice_requires_SPRING_APPLICATION_count_GET_"
component "io_github_georgwittberger_microserviceexample_contentservice_web_ContentController\n\n\n\n\n\n" {
[io_github_georgwittberger_microserviceexample_contentservice_web_ContentController]
portin " " as io_github_georgwittberger_microserviceexample_contentservice_web_ContentController_requires_SPRING_APPLICATION_GET_3
"io_github_georgwittberger_microserviceexample_contentservice_web_ContentController_requires_SPRING_APPLICATION_GET_3"--[io_github_georgwittberger_microserviceexample_contentservice_web_ContentController]
}
interface "SPRING-APPLICATION/[GET]$3" as interface.SPRING_APPLICATION_GET_3
interface.SPRING_APPLICATION_GET_3--"io_github_georgwittberger_microserviceexample_contentservice_web_ContentController_requires_SPRING_APPLICATION_GET_3"
component "io_github_georgwittberger_microserviceexample_productservice\n\n\n\n\n\n" {
[io_github_georgwittberger_microserviceexample_productservice_product_ProductService]
[io_github_georgwittberger_microserviceexample_productservice_web_ProductController]
portin " " as io_github_georgwittberger_microserviceexample_productservice_requires_SPRING_APPLICATION_GET_
[io_github_georgwittberger_microserviceexample_productservice_web_ProductController]..>[io_github_georgwittberger_microserviceexample_productservice_product_ProductService] : requires
"io_github_georgwittberger_microserviceexample_productservice_requires_SPRING_APPLICATION_GET_"--[io_github_georgwittberger_microserviceexample_productservice_web_ProductController]
}
interface "SPRING-APPLICATION/[GET]" as interface.SPRING_APPLICATION_GET_
interface.SPRING_APPLICATION_GET_--"io_github_georgwittberger_microserviceexample_productservice_requires_SPRING_APPLICATION_GET_"
interface "io_github_georgwittberger_microserviceexample_cartservice_cart_RestTemplate" as interface.io_github_georgwittberger_microserviceexample_cartservice_cart_RestTemplate
interface.io_github_georgwittberger_microserviceexample_cartservice_cart_RestTemplate--[io_github_georgwittberger_microserviceexample_cartservice_cart_RestTemplate_Provider]

@enduml
