@startuml
skinparam fixCircleLabelOverlapping true
skinparam componentStyle uml2
component "app_coronawarn_dcc\n\n\n\n\n\n" {
[app_coronawarn_dcc_service_LabIdClaimCleanupService]
[app_coronawarn_dcc_repository_LabIdClaimRepository]
[app_coronawarn_dcc_service_LabIdClaimService]
[app_coronawarn_dcc_service_LabIdClaimService]..>[app_coronawarn_dcc_repository_LabIdClaimRepository] : requires
[app_coronawarn_dcc_service_LabIdClaimCleanupService]..>[app_coronawarn_dcc_repository_LabIdClaimRepository] : requires
}
component "app_coronawarn_dcc 2\n\n\n\n\n\n" {
[app_coronawarn_dcc_repository_DccRegistrationRepository]
[app_coronawarn_dcc_service_DccRegistrationCleanupService]
[app_coronawarn_dcc_service_DccRegistrationService]
[app_coronawarn_dcc_service_DccRegistrationService]..>[app_coronawarn_dcc_repository_DccRegistrationRepository] : requires
[app_coronawarn_dcc_service_DccRegistrationCleanupService]..>[app_coronawarn_dcc_repository_DccRegistrationRepository] : requires
}
component "app_coronawarn_dcc_controller_ExternalDccClaimController\n\n\n\n\n\n" {
[app_coronawarn_dcc_controller_ExternalDccClaimController]
portin " " as app_coronawarn_dcc_controller_ExternalDccClaimController_requires_SPRING_APPLICATION_version_v1_dcc_POST_
"app_coronawarn_dcc_controller_ExternalDccClaimController_requires_SPRING_APPLICATION_version_v1_dcc_POST_"--[app_coronawarn_dcc_controller_ExternalDccClaimController]
}
interface "SPRING-APPLICATION/version/v1/dcc[POST]" as interface.SPRING_APPLICATION_version_v1_dcc_POST_
interface.SPRING_APPLICATION_version_v1_dcc_POST_--"app_coronawarn_dcc_controller_ExternalDccClaimController_requires_SPRING_APPLICATION_version_v1_dcc_POST_"
component "app_coronawarn_dcc_controller_ExternalPublicKeyController\n\n\n\n\n\n" {
[app_coronawarn_dcc_controller_ExternalPublicKeyController]
portin " " as app_coronawarn_dcc_controller_ExternalPublicKeyController_requires_SPRING_APPLICATION_version_v1_publicKey_POST_
"app_coronawarn_dcc_controller_ExternalPublicKeyController_requires_SPRING_APPLICATION_version_v1_publicKey_POST_"--[app_coronawarn_dcc_controller_ExternalPublicKeyController]
}
interface "SPRING-APPLICATION/version/v1/publicKey[POST]" as interface.SPRING_APPLICATION_version_v1_publicKey_POST_
interface.SPRING_APPLICATION_version_v1_publicKey_POST_--"app_coronawarn_dcc_controller_ExternalPublicKeyController_requires_SPRING_APPLICATION_version_v1_publicKey_POST_"
component "app_coronawarn_dcc_controller_InternalDccController\n\n\n\n\n\n" {
[app_coronawarn_dcc_controller_InternalDccController]
portin " " as app_coronawarn_dcc_controller_InternalDccController_requires_SPRING_APPLICATION_version_v1_test_dcc_POST_
"app_coronawarn_dcc_controller_InternalDccController_requires_SPRING_APPLICATION_version_v1_test_dcc_POST_"--[app_coronawarn_dcc_controller_InternalDccController]
}
interface "SPRING-APPLICATION/version/v1/test/*/dcc[POST]" as interface.SPRING_APPLICATION_version_v1_test_dcc_POST_
interface.SPRING_APPLICATION_version_v1_test_dcc_POST_--"app_coronawarn_dcc_controller_InternalDccController_requires_SPRING_APPLICATION_version_v1_test_dcc_POST_"
component "app_coronawarn_dcc_controller_InternalLabIdClaimController\n\n\n\n\n\n" {
[app_coronawarn_dcc_controller_InternalLabIdClaimController]
portin " " as app_coronawarn_dcc_controller_InternalLabIdClaimController_requires_SPRING_APPLICATION_version_v1_labId_POST_
"app_coronawarn_dcc_controller_InternalLabIdClaimController_requires_SPRING_APPLICATION_version_v1_labId_POST_"--[app_coronawarn_dcc_controller_InternalLabIdClaimController]
}
interface "SPRING-APPLICATION/version/v1/labId[POST]" as interface.SPRING_APPLICATION_version_v1_labId_POST_
interface.SPRING_APPLICATION_version_v1_labId_POST_--"app_coronawarn_dcc_controller_InternalLabIdClaimController_requires_SPRING_APPLICATION_version_v1_labId_POST_"
component "app_coronawarn_dcc_controller_InternalPublicKeyController\n\n\n\n\n\n" {
[app_coronawarn_dcc_controller_InternalPublicKeyController]
portin " " as app_coronawarn_dcc_controller_InternalPublicKeyController_requires_SPRING_APPLICATION_version_v1_publicKey_search_GET_
"app_coronawarn_dcc_controller_InternalPublicKeyController_requires_SPRING_APPLICATION_version_v1_publicKey_search_GET_"--[app_coronawarn_dcc_controller_InternalPublicKeyController]
}
interface "SPRING-APPLICATION/version/v1/publicKey/search[GET]" as interface.SPRING_APPLICATION_version_v1_publicKey_search_GET_
interface.SPRING_APPLICATION_version_v1_publicKey_search_GET_--"app_coronawarn_dcc_controller_InternalPublicKeyController_requires_SPRING_APPLICATION_version_v1_publicKey_search_GET_"
component "app_coronawarn_dcc_service_DccService\n\n\n\n\n\n" {
[app_coronawarn_dcc_service_DccService]
}

@enduml
