@startuml
skinparam fixCircleLabelOverlapping true
skinparam componentStyle uml2
component "com_ewolff_microservice_catalog\n\n\n\n\n\n" {
[com_ewolff_microservice_catalog_CatalogApp]
[com_ewolff_microservice_catalog_web_CatalogController]
[com_ewolff_microservice_catalog_ItemRepository]
portin " " as com_ewolff_microservice_catalog_requires_catalog_searchForm_html
portin " " as com_ewolff_microservice_catalog_requires_catalog_searchByName_html
portin " " as com_ewolff_microservice_catalog_requires_catalog_form_html
portin " " as com_ewolff_microservice_catalog_requires_catalog__html
portin " " as com_ewolff_microservice_catalog_requires_catalog_list_html
[com_ewolff_microservice_catalog_CatalogApp]..>[com_ewolff_microservice_catalog_ItemRepository] : requires
[com_ewolff_microservice_catalog_web_CatalogController]..>[com_ewolff_microservice_catalog_ItemRepository] : requires
"com_ewolff_microservice_catalog_requires_catalog_searchForm_html"--[com_ewolff_microservice_catalog_web_CatalogController]
"com_ewolff_microservice_catalog_requires_catalog_searchByName_html"--[com_ewolff_microservice_catalog_web_CatalogController]
"com_ewolff_microservice_catalog_requires_catalog__html"--[com_ewolff_microservice_catalog_web_CatalogController]
"com_ewolff_microservice_catalog_requires_catalog_list_html"--[com_ewolff_microservice_catalog_web_CatalogController]
"com_ewolff_microservice_catalog_requires_catalog_form_html"--[com_ewolff_microservice_catalog_web_CatalogController]
}
interface "catalog/*_html" as interface.catalog__html
interface.catalog__html--"com_ewolff_microservice_catalog_requires_catalog__html"
interface "catalog/form_html" as interface.catalog_form_html
interface.catalog_form_html--"com_ewolff_microservice_catalog_requires_catalog_form_html"
interface "catalog/list_html" as interface.catalog_list_html
interface.catalog_list_html--"com_ewolff_microservice_catalog_requires_catalog_list_html"
interface "catalog/searchByName_html" as interface.catalog_searchByName_html
interface.catalog_searchByName_html--"com_ewolff_microservice_catalog_requires_catalog_searchByName_html"
interface "catalog/searchForm_html" as interface.catalog_searchForm_html
interface.catalog_searchForm_html--"com_ewolff_microservice_catalog_requires_catalog_searchForm_html"
component "com_ewolff_microservice_customer\n\n\n\n\n\n" {
[com_ewolff_microservice_customer_web_CustomerController]
[com_ewolff_microservice_customer_CustomerApp]
[com_ewolff_microservice_customer_CustomerRepository]
portin " " as com_ewolff_microservice_customer_requires_customer__html
portin " " as com_ewolff_microservice_customer_requires_customer_form_html
portin " " as com_ewolff_microservice_customer_requires_customer_list_html
[com_ewolff_microservice_customer_CustomerApp]..>[com_ewolff_microservice_customer_CustomerRepository] : requires
[com_ewolff_microservice_customer_web_CustomerController]..>[com_ewolff_microservice_customer_CustomerRepository] : requires
"com_ewolff_microservice_customer_requires_customer_form_html"--[com_ewolff_microservice_customer_web_CustomerController]
"com_ewolff_microservice_customer_requires_customer_list_html"--[com_ewolff_microservice_customer_web_CustomerController]
"com_ewolff_microservice_customer_requires_customer__html"--[com_ewolff_microservice_customer_web_CustomerController]
}
interface "customer/*_html" as interface.customer__html
interface.customer__html--"com_ewolff_microservice_customer_requires_customer__html"
interface "customer/form_html" as interface.customer_form_html
interface.customer_form_html--"com_ewolff_microservice_customer_requires_customer_form_html"
interface "customer/list_html" as interface.customer_list_html
interface.customer_list_html--"com_ewolff_microservice_customer_requires_customer_list_html"
component "com_ewolff_microservice_order\n\n\n\n\n\n" {
[com_ewolff_microservice_order_clients_CatalogClient]
[com_ewolff_microservice_order_logic_OrderRepository]
[com_ewolff_microservice_order_logic_OrderService]
[com_ewolff_microservice_order_logic_OrderController]
[com_ewolff_microservice_order_clients_CustomerClient]
portin " " as com_ewolff_microservice_order_requires_order_2
portin " " as com_ewolff_microservice_order_requires_order_form_html
portin " " as com_ewolff_microservice_order_requires_order_4
portin " " as com_ewolff_microservice_order_requires_order_
portin " " as com_ewolff_microservice_order_requires_order_3
portin " " as com_ewolff_microservice_order_requires_order_line
[com_ewolff_microservice_order_logic_OrderService]..>[com_ewolff_microservice_order_clients_CustomerClient] : requires
[com_ewolff_microservice_order_logic_OrderService]..>[com_ewolff_microservice_order_clients_CatalogClient] : requires
[com_ewolff_microservice_order_logic_OrderController]..>[com_ewolff_microservice_order_clients_CatalogClient] : requires
[com_ewolff_microservice_order_logic_OrderController]..>[com_ewolff_microservice_order_logic_OrderRepository] : requires
[com_ewolff_microservice_order_logic_OrderController]..>[com_ewolff_microservice_order_clients_CustomerClient] : requires
[com_ewolff_microservice_order_logic_OrderController]..>[com_ewolff_microservice_order_logic_OrderService] : requires
[com_ewolff_microservice_order_logic_OrderService]..>[com_ewolff_microservice_order_logic_OrderRepository] : requires
"com_ewolff_microservice_order_requires_order_"--[com_ewolff_microservice_order_logic_OrderController]
"com_ewolff_microservice_order_requires_order_3"--[com_ewolff_microservice_order_logic_OrderController]
"com_ewolff_microservice_order_requires_order_form_html"--[com_ewolff_microservice_order_logic_OrderController]
"com_ewolff_microservice_order_requires_order_line"--[com_ewolff_microservice_order_logic_OrderController]
"com_ewolff_microservice_order_requires_order_4"--[com_ewolff_microservice_order_logic_OrderController]
"com_ewolff_microservice_order_requires_order_2"--[com_ewolff_microservice_order_logic_OrderController]
}
interface "order/$2" as interface.order_2
interface.order_2--"com_ewolff_microservice_order_requires_order_2"
interface "order/$3" as interface.order_3
interface.order_3--"com_ewolff_microservice_order_requires_order_3"
interface "order/$4" as interface.order_4
interface.order_4--"com_ewolff_microservice_order_requires_order_4"
interface "order/" as interface.order_
interface.order_--"com_ewolff_microservice_order_requires_order_"
interface "order/form_html" as interface.order_form_html
interface.order_form_html--"com_ewolff_microservice_order_requires_order_form_html"
interface "order/line" as interface.order_line
interface.order_line--"com_ewolff_microservice_order_requires_order_line"
component "com_ewolff_microservice_order_catalogstub_CatalogStub\n\n\n\n\n\n" {
[com_ewolff_microservice_order_catalogstub_CatalogStub]
portin " " as com_ewolff_microservice_order_catalogstub_CatalogStub_requires_order_catalog
"com_ewolff_microservice_order_catalogstub_CatalogStub_requires_order_catalog"--[com_ewolff_microservice_order_catalogstub_CatalogStub]
}
interface "order/catalog" as interface.order_catalog
interface.order_catalog--"com_ewolff_microservice_order_catalogstub_CatalogStub_requires_order_catalog"
component "com_ewolff_microservice_order_customerstub_CustomerStub\n\n\n\n\n\n" {
[com_ewolff_microservice_order_customerstub_CustomerStub]
portin " " as com_ewolff_microservice_order_customerstub_CustomerStub_requires_order_customer
"com_ewolff_microservice_order_customerstub_CustomerStub_requires_order_customer"--[com_ewolff_microservice_order_customerstub_CustomerStub]
}
interface "order/customer" as interface.order_customer
interface.order_customer--"com_ewolff_microservice_order_customerstub_CustomerStub_requires_order_customer"

@enduml
