@startuml
skinparam fixCircleLabelOverlapping true
skinparam componentStyle uml2
component "edu_kit_recipe_recipebackend\n\n\n\n\n\n" {
[edu_kit_recipe_recipebackend_controller_api_v1_units_UnitController]
[edu_kit_recipe_recipebackend_repository_UnitRepository]
portin " " as edu_kit_recipe_recipebackend_requires_SPRING_APPLICATION_api_v1_units_DELETE_GET_POST_
[edu_kit_recipe_recipebackend_controller_api_v1_units_UnitController]..>[edu_kit_recipe_recipebackend_repository_UnitRepository] : requires
"edu_kit_recipe_recipebackend_requires_SPRING_APPLICATION_api_v1_units_DELETE_GET_POST_"--[edu_kit_recipe_recipebackend_controller_api_v1_units_UnitController]
}
interface "SPRING-APPLICATION/api/v1/units[DELETE,GET,POST]" as interface.SPRING_APPLICATION_api_v1_units_DELETE_GET_POST_
interface.SPRING_APPLICATION_api_v1_units_DELETE_GET_POST_--"edu_kit_recipe_recipebackend_requires_SPRING_APPLICATION_api_v1_units_DELETE_GET_POST_"
component "edu_kit_recipe_recipebackend 2\n\n\n\n\n\n" {
[edu_kit_recipe_recipebackend_controller_api_v1_tag_TagsController]
[edu_kit_recipe_recipebackend_repository_tag_TagRepository]
[edu_kit_recipe_recipebackend_controller_api_v1_ingredients_IngredientsController]
[edu_kit_recipe_recipebackend_repository_IngredientRepository]
portin " " as edu_kit_recipe_recipebackend_2_requires_SPRING_APPLICATION_api_v1_tags_GET_POST_
portin " " as edu_kit_recipe_recipebackend_2_requires_SPRING_APPLICATION_api_v1_ingredients_DELETE_GET_POST_
[edu_kit_recipe_recipebackend_controller_api_v1_ingredients_IngredientsController]..>[edu_kit_recipe_recipebackend_repository_tag_TagRepository] : requires
[edu_kit_recipe_recipebackend_controller_api_v1_tag_TagsController]..>[edu_kit_recipe_recipebackend_repository_tag_TagRepository] : requires
[edu_kit_recipe_recipebackend_controller_api_v1_ingredients_IngredientsController]..>[edu_kit_recipe_recipebackend_repository_IngredientRepository] : requires
"edu_kit_recipe_recipebackend_2_requires_SPRING_APPLICATION_api_v1_ingredients_DELETE_GET_POST_"--[edu_kit_recipe_recipebackend_controller_api_v1_ingredients_IngredientsController]
"edu_kit_recipe_recipebackend_2_requires_SPRING_APPLICATION_api_v1_tags_GET_POST_"--[edu_kit_recipe_recipebackend_controller_api_v1_tag_TagsController]
}
interface "SPRING-APPLICATION/api/v1/ingredients[DELETE,GET,POST]" as interface.SPRING_APPLICATION_api_v1_ingredients_DELETE_GET_POST_
interface.SPRING_APPLICATION_api_v1_ingredients_DELETE_GET_POST_--"edu_kit_recipe_recipebackend_2_requires_SPRING_APPLICATION_api_v1_ingredients_DELETE_GET_POST_"
interface "SPRING-APPLICATION/api/v1/tags[GET,POST]" as interface.SPRING_APPLICATION_api_v1_tags_GET_POST_
interface.SPRING_APPLICATION_api_v1_tags_GET_POST_--"edu_kit_recipe_recipebackend_2_requires_SPRING_APPLICATION_api_v1_tags_GET_POST_"
component "edu_kit_recipe_recipebackend 3\n\n\n\n\n\n" {
[edu_kit_recipe_recipebackend_repository_ImageRepository]
[edu_kit_recipe_recipebackend_controller_api_v1_recipe_RecipeController]
[edu_kit_recipe_recipebackend_service_RecipeService]
[edu_kit_recipe_recipebackend_repository_CustomerRepository]
[edu_kit_recipe_recipebackend_repository_RecipeRepository]
[edu_kit_recipe_recipebackend_controller_api_v1_image_ImageController]
[edu_kit_recipe_recipebackend_service_CustomerService]
portin " " as edu_kit_recipe_recipebackend_3_requires_SPRING_APPLICATION_api_v1_recipes
portin " " as edu_kit_recipe_recipebackend_3_requires_SPRING_APPLICATION_api_v1_images_GET_POST_
[edu_kit_recipe_recipebackend_service_CustomerService]..>[edu_kit_recipe_recipebackend_repository_RecipeRepository] : requires
[edu_kit_recipe_recipebackend_service_RecipeService]..>[edu_kit_recipe_recipebackend_repository_ImageRepository] : requires
[edu_kit_recipe_recipebackend_controller_api_v1_recipe_RecipeController]..>[edu_kit_recipe_recipebackend_repository_RecipeRepository] : requires
[edu_kit_recipe_recipebackend_service_CustomerService]..>[edu_kit_recipe_recipebackend_repository_CustomerRepository] : requires
[edu_kit_recipe_recipebackend_controller_api_v1_image_ImageController]..>[edu_kit_recipe_recipebackend_repository_ImageRepository] : requires
[edu_kit_recipe_recipebackend_service_RecipeService]..>[edu_kit_recipe_recipebackend_repository_RecipeRepository] : requires
"edu_kit_recipe_recipebackend_3_requires_SPRING_APPLICATION_api_v1_recipes"--[edu_kit_recipe_recipebackend_controller_api_v1_recipe_RecipeController]
"edu_kit_recipe_recipebackend_3_requires_SPRING_APPLICATION_api_v1_images_GET_POST_"--[edu_kit_recipe_recipebackend_controller_api_v1_image_ImageController]
}
interface "SPRING-APPLICATION/api/v1/images[GET,POST]" as interface.SPRING_APPLICATION_api_v1_images_GET_POST_
interface.SPRING_APPLICATION_api_v1_images_GET_POST_--"edu_kit_recipe_recipebackend_3_requires_SPRING_APPLICATION_api_v1_images_GET_POST_"
interface "SPRING-APPLICATION/api/v1/recipes" as interface.SPRING_APPLICATION_api_v1_recipes
interface.SPRING_APPLICATION_api_v1_recipes--"edu_kit_recipe_recipebackend_3_requires_SPRING_APPLICATION_api_v1_recipes"
component "edu_kit_recipe_recipebackend_controller_BaseController\n\n\n\n\n\n" {
[edu_kit_recipe_recipebackend_controller_BaseController]
portin " " as edu_kit_recipe_recipebackend_controller_BaseController_requires_SPRING_APPLICATION_GET_
portin " " as edu_kit_recipe_recipebackend_controller_BaseController_requires_SPRING_APPLICATION_test_GET_
"edu_kit_recipe_recipebackend_controller_BaseController_requires_SPRING_APPLICATION_test_GET_"--[edu_kit_recipe_recipebackend_controller_BaseController]
"edu_kit_recipe_recipebackend_controller_BaseController_requires_SPRING_APPLICATION_GET_"--[edu_kit_recipe_recipebackend_controller_BaseController]
}
interface "SPRING-APPLICATION/[GET]" as interface.SPRING_APPLICATION_GET_
interface.SPRING_APPLICATION_GET_--"edu_kit_recipe_recipebackend_controller_BaseController_requires_SPRING_APPLICATION_GET_"
interface "SPRING-APPLICATION/test[GET]" as interface.SPRING_APPLICATION_test_GET_
interface.SPRING_APPLICATION_test_GET_--"edu_kit_recipe_recipebackend_controller_BaseController_requires_SPRING_APPLICATION_test_GET_"
component "edu_kit_recipe_recipebackend_controller_api_v1_user_CustomerController\n\n\n\n\n\n" {
[edu_kit_recipe_recipebackend_controller_api_v1_user_CustomerController]
portin " " as edu_kit_recipe_recipebackend_controller_api_v1_user_CustomerController_requires_SPRING_APPLICATION_api_v1_user
"edu_kit_recipe_recipebackend_controller_api_v1_user_CustomerController_requires_SPRING_APPLICATION_api_v1_user"--[edu_kit_recipe_recipebackend_controller_api_v1_user_CustomerController]
}
interface "SPRING-APPLICATION/api/v1/user" as interface.SPRING_APPLICATION_api_v1_user
interface.SPRING_APPLICATION_api_v1_user--"edu_kit_recipe_recipebackend_controller_api_v1_user_CustomerController_requires_SPRING_APPLICATION_api_v1_user"
component "edu_kit_recipe_recipebackend_controller_exception_ExceptionController\n\n\n\n\n\n" {
[edu_kit_recipe_recipebackend_controller_exception_ExceptionController]
portin " " as edu_kit_recipe_recipebackend_controller_exception_ExceptionController_requires_SPRING_APPLICATION_error
"edu_kit_recipe_recipebackend_controller_exception_ExceptionController_requires_SPRING_APPLICATION_error"--[edu_kit_recipe_recipebackend_controller_exception_ExceptionController]
}
interface "SPRING-APPLICATION/error" as interface.SPRING_APPLICATION_error
interface.SPRING_APPLICATION_error--"edu_kit_recipe_recipebackend_controller_exception_ExceptionController_requires_SPRING_APPLICATION_error"

@enduml
