@startuml
skinparam fixCircleLabelOverlapping true
skinparam componentStyle uml2
component "meet_eat_server\n\n\n\n\n\n" {
[meet_eat_server_service_security_TagSecurityService]
[meet_eat_server_service_ReportService]
[meet_eat_server_controller_SubscriptionController]
[meet_eat_server_service_security_SubscriptionSecurityService]
[meet_eat_server_service_security_ParticipationSecurityService]
[meet_eat_server_service_security_ReportSecurityService]
[meet_eat_server_service_security_OfferSecurityService]
[meet_eat_server_service_security_BookmarkSecurityService]
[meet_eat_server_controller_TokenController]
[meet_eat_server_controller_RatingController]
[meet_eat_server_service_security_RatingSecurityService]
[meet_eat_server_repository_TagRepository]
[meet_eat_server_repository_ParticipationRepository]
[meet_eat_server_service_ParticipationService]
[meet_eat_server_service_SubscriptionService]
[meet_eat_server_service_security_UserSecurityService]
[meet_eat_server_repository_RatingRepository]
[meet_eat_server_repository_UserRepository]
[meet_eat_server_controller_ReportController]
[meet_eat_server_service_UserService]
[meet_eat_server_controller_TagController]
[meet_eat_server_repository_SubscriptionRepository]
[meet_eat_server_controller_OfferController]
[meet_eat_server_controller_ParticipationController]
[meet_eat_server_repository_OfferRepository]
[meet_eat_server_service_OfferService]
[meet_eat_server_service_RatingService]
[meet_eat_server_controller_BookmarkController]
[meet_eat_server_service_security_TokenSecurityService]
[meet_eat_server_service_BookmarkService]
[meet_eat_server_repository_ReportRepository]
[meet_eat_server_service_TagService]
[meet_eat_server_controller_UserController]
[meet_eat_server_repository_BookmarkRepository]
[meet_eat_server_repository_TokenRepository]
[meet_eat_server_service_TokenService]
[meet_eat_server_service_EmailService]
[meet_eat_server_service_TokenService]..>[meet_eat_server_repository_TokenRepository] : requires
[meet_eat_server_controller_ReportController]..>[meet_eat_server_service_security_TokenSecurityService] : requires
[meet_eat_server_controller_ReportController]..>[meet_eat_server_service_ReportService] : requires
[meet_eat_server_controller_ParticipationController]..>[meet_eat_server_service_security_BookmarkSecurityService] : requires
[meet_eat_server_service_OfferService]..>[meet_eat_server_service_ParticipationService] : requires
[meet_eat_server_controller_BookmarkController]..>[meet_eat_server_service_security_OfferSecurityService] : requires
[meet_eat_server_controller_BookmarkController]..>[meet_eat_server_service_security_UserSecurityService] : requires
[meet_eat_server_controller_ReportController]..>[meet_eat_server_service_security_TagSecurityService] : requires
[meet_eat_server_controller_ReportController]..>[meet_eat_server_service_security_OfferSecurityService] : requires
[meet_eat_server_service_security_UserSecurityService]..>[meet_eat_server_service_TokenService] : requires
[meet_eat_server_controller_ReportController]..>[meet_eat_server_service_security_ParticipationSecurityService] : requires
[meet_eat_server_controller_ReportController]..>[meet_eat_server_service_security_UserSecurityService] : requires
[meet_eat_server_service_UserService]..>[meet_eat_server_service_BookmarkService] : requires
[meet_eat_server_service_security_RatingSecurityService]..>[meet_eat_server_service_TokenService] : requires
[meet_eat_server_controller_TagController]..>[meet_eat_server_service_security_TagSecurityService] : requires
[meet_eat_server_service_OfferService]..>[meet_eat_server_service_UserService] : requires
[meet_eat_server_controller_SubscriptionController]..>[meet_eat_server_service_security_RatingSecurityService] : requires
[meet_eat_server_service_RatingService]..>[meet_eat_server_repository_RatingRepository] : requires
[meet_eat_server_controller_TokenController]..>[meet_eat_server_service_security_TokenSecurityService] : requires
[meet_eat_server_service_UserService]..>[meet_eat_server_service_SubscriptionService] : requires
[meet_eat_server_controller_ParticipationController]..>[meet_eat_server_service_security_SubscriptionSecurityService] : requires
[meet_eat_server_service_security_ParticipationSecurityService]..>[meet_eat_server_service_TokenService] : requires
[meet_eat_server_service_security_ReportSecurityService]..>[meet_eat_server_service_TokenService] : requires
[meet_eat_server_service_security_SubscriptionSecurityService]..>[meet_eat_server_service_TokenService] : requires
[meet_eat_server_controller_OfferController]..>[meet_eat_server_service_OfferService] : requires
[meet_eat_server_service_OfferService]..>[meet_eat_server_repository_OfferRepository] : requires
[meet_eat_server_controller_BookmarkController]..>[meet_eat_server_service_security_TagSecurityService] : requires
[meet_eat_server_controller_ReportController]..>[meet_eat_server_service_security_ReportSecurityService] : requires
[meet_eat_server_controller_RatingController]..>[meet_eat_server_service_security_TagSecurityService] : requires
[meet_eat_server_controller_TokenController]..>[meet_eat_server_service_TokenService] : requires
[meet_eat_server_controller_ReportController]..>[meet_eat_server_service_security_RatingSecurityService] : requires
[meet_eat_server_service_RatingService]..>[meet_eat_server_service_UserService] : requires
[meet_eat_server_controller_ParticipationController]..>[meet_eat_server_service_security_ReportSecurityService] : requires
[meet_eat_server_controller_ReportController]..>[meet_eat_server_service_security_BookmarkSecurityService] : requires
[meet_eat_server_service_ReportService]..>[meet_eat_server_repository_ReportRepository] : requires
[meet_eat_server_service_UserService]..>[meet_eat_server_service_ParticipationService] : requires
[meet_eat_server_controller_RatingController]..>[meet_eat_server_service_security_OfferSecurityService] : requires
[meet_eat_server_controller_SubscriptionController]..>[meet_eat_server_service_security_BookmarkSecurityService] : requires
[meet_eat_server_controller_UserController]..>[meet_eat_server_service_security_UserSecurityService] : requires
[meet_eat_server_controller_BookmarkController]..>[meet_eat_server_service_security_SubscriptionSecurityService] : requires
[meet_eat_server_service_security_TokenSecurityService]..>[meet_eat_server_service_TokenService] : requires
[meet_eat_server_controller_TagController]..>[meet_eat_server_service_TagService] : requires
[meet_eat_server_controller_RatingController]..>[meet_eat_server_service_security_ReportSecurityService] : requires
[meet_eat_server_controller_ReportController]..>[meet_eat_server_service_security_OfferSecurityService] : requires
[meet_eat_server_service_TagService]..>[meet_eat_server_repository_TagRepository] : requires
[meet_eat_server_service_SubscriptionService]..>[meet_eat_server_repository_SubscriptionRepository] : requires
[meet_eat_server_controller_ParticipationController]..>[meet_eat_server_service_security_TagSecurityService] : requires
[meet_eat_server_controller_BookmarkController]..>[meet_eat_server_service_security_TokenSecurityService] : requires
[meet_eat_server_controller_RatingController]..>[meet_eat_server_service_security_RatingSecurityService] : requires
[meet_eat_server_service_security_BookmarkSecurityService]..>[meet_eat_server_service_TokenService] : requires
[meet_eat_server_service_SubscriptionService]..>[meet_eat_server_service_UserService] : requires
[meet_eat_server_controller_SubscriptionController]..>[meet_eat_server_service_security_OfferSecurityService] : requires
[meet_eat_server_controller_RatingController]..>[meet_eat_server_service_RatingService] : requires
[meet_eat_server_service_security_TagSecurityService]..>[meet_eat_server_service_TokenService] : requires
[meet_eat_server_controller_BookmarkController]..>[meet_eat_server_service_security_ParticipationSecurityService] : requires
[meet_eat_server_controller_SubscriptionController]..>[meet_eat_server_service_security_UserSecurityService] : requires
[meet_eat_server_controller_ParticipationController]..>[meet_eat_server_service_ParticipationService] : requires
[meet_eat_server_controller_UserController]..>[meet_eat_server_service_UserService] : requires
[meet_eat_server_controller_BookmarkController]..>[meet_eat_server_service_BookmarkService] : requires
[meet_eat_server_service_UserService]..>[meet_eat_server_service_ReportService] : requires
[meet_eat_server_service_UserService]..>[meet_eat_server_service_EmailService] : requires
[meet_eat_server_controller_RatingController]..>[meet_eat_server_service_security_BookmarkSecurityService] : requires
[meet_eat_server_service_ParticipationService]..>[meet_eat_server_repository_ParticipationRepository] : requires
[meet_eat_server_controller_SubscriptionController]..>[meet_eat_server_service_security_ReportSecurityService] : requires
[meet_eat_server_controller_ParticipationController]..>[meet_eat_server_service_security_RatingSecurityService] : requires
[meet_eat_server_controller_SubscriptionController]..>[meet_eat_server_service_security_SubscriptionSecurityService] : requires
[meet_eat_server_service_UserService]..>[meet_eat_server_service_TokenService] : requires
[meet_eat_server_controller_SubscriptionController]..>[meet_eat_server_service_security_ParticipationSecurityService] : requires
[meet_eat_server_controller_ParticipationController]..>[meet_eat_server_service_security_OfferSecurityService] : requires
[meet_eat_server_service_BookmarkService]..>[meet_eat_server_repository_BookmarkRepository] : requires
[meet_eat_server_service_BookmarkService]..>[meet_eat_server_service_UserService] : requires
[meet_eat_server_controller_RatingController]..>[meet_eat_server_service_security_SubscriptionSecurityService] : requires
[meet_eat_server_controller_SubscriptionController]..>[meet_eat_server_service_security_OfferSecurityService] : requires
[meet_eat_server_service_UserService]..>[meet_eat_server_service_RatingService] : requires
[meet_eat_server_controller_ParticipationController]..>[meet_eat_server_service_security_ParticipationSecurityService] : requires
[meet_eat_server_controller_SubscriptionController]..>[meet_eat_server_service_security_TokenSecurityService] : requires
[meet_eat_server_service_TokenService]..>[meet_eat_server_service_UserService] : requires
[meet_eat_server_service_OfferService]..>[meet_eat_server_service_ReportService] : requires
[meet_eat_server_controller_ParticipationController]..>[meet_eat_server_service_security_TokenSecurityService] : requires
[meet_eat_server_controller_RatingController]..>[meet_eat_server_service_security_UserSecurityService] : requires
[meet_eat_server_service_UserService]..>[meet_eat_server_service_OfferService] : requires
[meet_eat_server_service_UserService]..>[meet_eat_server_repository_UserRepository] : requires
[meet_eat_server_controller_RatingController]..>[meet_eat_server_service_security_OfferSecurityService] : requires
[meet_eat_server_controller_BookmarkController]..>[meet_eat_server_service_security_BookmarkSecurityService] : requires
[meet_eat_server_controller_RatingController]..>[meet_eat_server_service_security_TokenSecurityService] : requires
[meet_eat_server_controller_SubscriptionController]..>[meet_eat_server_service_SubscriptionService] : requires
[meet_eat_server_controller_ParticipationController]..>[meet_eat_server_service_security_OfferSecurityService] : requires
[meet_eat_server_controller_BookmarkController]..>[meet_eat_server_service_security_RatingSecurityService] : requires
[meet_eat_server_controller_BookmarkController]..>[meet_eat_server_service_security_ReportSecurityService] : requires
[meet_eat_server_controller_RatingController]..>[meet_eat_server_service_security_ParticipationSecurityService] : requires
[meet_eat_server_service_OfferService]..>[meet_eat_server_service_SubscriptionService] : requires
[meet_eat_server_service_OfferService]..>[meet_eat_server_service_RatingService] : requires
[meet_eat_server_controller_OfferController]..>[meet_eat_server_service_security_OfferSecurityService] : requires
[meet_eat_server_controller_ParticipationController]..>[meet_eat_server_service_security_UserSecurityService] : requires
[meet_eat_server_service_OfferService]..>[meet_eat_server_service_BookmarkService] : requires
[meet_eat_server_controller_ReportController]..>[meet_eat_server_service_security_SubscriptionSecurityService] : requires
[meet_eat_server_controller_SubscriptionController]..>[meet_eat_server_service_security_TagSecurityService] : requires
[meet_eat_server_service_security_OfferSecurityService]..>[meet_eat_server_service_TokenService] : requires
[meet_eat_server_service_ParticipationService]..>[meet_eat_server_service_OfferService] : requires
[meet_eat_server_controller_BookmarkController]..>[meet_eat_server_service_security_OfferSecurityService] : requires
}
interface "meet_eat_server_service_JavaMailSender" as interface.meet_eat_server_service_JavaMailSender
interface.meet_eat_server_service_JavaMailSender--[meet_eat_server_service_JavaMailSender_Provider]
interface "meet_eat_server_service_security_SecurityService$13" as interface.meet_eat_server_service_security_SecurityService_13
interface.meet_eat_server_service_security_SecurityService_13--[meet_eat_server_service_security_SecurityService_13_Provider]
interface "meet_eat_server_service_security_SecurityService$14" as interface.meet_eat_server_service_security_SecurityService_14
interface.meet_eat_server_service_security_SecurityService_14--[meet_eat_server_service_security_SecurityService_14_Provider]
interface "meet_eat_server_service_security_SecurityService$2" as interface.meet_eat_server_service_security_SecurityService_2
interface.meet_eat_server_service_security_SecurityService_2--[meet_eat_server_service_security_SecurityService_2_Provider]
interface "meet_eat_server_service_security_SecurityService$5" as interface.meet_eat_server_service_security_SecurityService_5
interface.meet_eat_server_service_security_SecurityService_5--[meet_eat_server_service_security_SecurityService_5_Provider]
interface "meet_eat_server_service_security_SecurityService$9" as interface.meet_eat_server_service_security_SecurityService_9
interface.meet_eat_server_service_security_SecurityService_9--[meet_eat_server_service_security_SecurityService_9_Provider]

@enduml
