@startuml
skinparam fixCircleLabelOverlapping true
skinparam componentStyle uml2
component "org_openmrs_module_webservices_rest_web_controller_SettingsFormController\n\n\n\n\n\n" {
[org_openmrs_module_webservices_rest_web_controller_SettingsFormController]
portin " " as org_openmrs_module_webservices_rest_web_controller_SettingsFormController_requires_SPRING_APPLICATION_module_webservices_rest_settings
"org_openmrs_module_webservices_rest_web_controller_SettingsFormController_requires_SPRING_APPLICATION_module_webservices_rest_settings"--[org_openmrs_module_webservices_rest_web_controller_SettingsFormController]
}
interface "SPRING-APPLICATION/module/webservices/rest/settings" as interface.SPRING_APPLICATION_module_webservices_rest_settings
interface.SPRING_APPLICATION_module_webservices_rest_settings--"org_openmrs_module_webservices_rest_web_controller_SettingsFormController_requires_SPRING_APPLICATION_module_webservices_rest_settings"
component "org_openmrs_module_webservices_rest_web_controller_SwaggerDocController\n\n\n\n\n\n" {
[org_openmrs_module_webservices_rest_web_controller_SwaggerDocController]
portin " " as org_openmrs_module_webservices_rest_web_controller_SwaggerDocController_requires_SPRING_APPLICATION_module_webservices_rest_apiDocs
"org_openmrs_module_webservices_rest_web_controller_SwaggerDocController_requires_SPRING_APPLICATION_module_webservices_rest_apiDocs"--[org_openmrs_module_webservices_rest_web_controller_SwaggerDocController]
}
interface "SPRING-APPLICATION/module/webservices/rest/apiDocs" as interface.SPRING_APPLICATION_module_webservices_rest_apiDocs
interface.SPRING_APPLICATION_module_webservices_rest_apiDocs--"org_openmrs_module_webservices_rest_web_controller_SwaggerDocController_requires_SPRING_APPLICATION_module_webservices_rest_apiDocs"
component "org_openmrs_module_webservices_rest_web_controller_SwaggerSpecificationController\n\n\n\n\n\n" {
[org_openmrs_module_webservices_rest_web_controller_SwaggerSpecificationController]
portin " " as org_openmrs_module_webservices_rest_web_controller_SwaggerSpecificationController_requires_SPRING_APPLICATION_module_webservices_rest_swagger_json
"org_openmrs_module_webservices_rest_web_controller_SwaggerSpecificationController_requires_SPRING_APPLICATION_module_webservices_rest_swagger_json"--[org_openmrs_module_webservices_rest_web_controller_SwaggerSpecificationController]
}
interface "SPRING-APPLICATION/module/webservices/rest/swagger_json" as interface.SPRING_APPLICATION_module_webservices_rest_swagger_json
interface.SPRING_APPLICATION_module_webservices_rest_swagger_json--"org_openmrs_module_webservices_rest_web_controller_SwaggerSpecificationController_requires_SPRING_APPLICATION_module_webservices_rest_swagger_json"
component "org_openmrs_module_webservices_rest_web_v1_0_controller\n\n\n\n\n\n" {
[org_openmrs_module_webservices_rest_web_v1_0_controller_MainSubResourceController]
[org_openmrs_module_webservices_rest_web_v1_0_controller_BaseUriSetup]
[org_openmrs_module_webservices_rest_web_v1_0_controller_MainResourceController]
[org_openmrs_module_webservices_rest_web_v1_0_controller_openmrs1_8_HL7MessageController1_8]
portin " " as org_openmrs_module_webservices_rest_web_v1_0_controller_requires_SPRING_APPLICATION_32
portin " " as org_openmrs_module_webservices_rest_web_v1_0_controller_requires_SPRING_APPLICATION_6
portin " " as org_openmrs_module_webservices_rest_web_v1_0_controller_requires_SPRING_APPLICATION_16
portin " " as org_openmrs_module_webservices_rest_web_v1_0_controller_requires_SPRING_APPLICATION_rest_v1_hl7
portin " " as org_openmrs_module_webservices_rest_web_v1_0_controller_requires_SPRING_APPLICATION_11
portin " " as org_openmrs_module_webservices_rest_web_v1_0_controller_requires_SPRING_APPLICATION_13
portin " " as org_openmrs_module_webservices_rest_web_v1_0_controller_requires_SPRING_APPLICATION_14
portin " " as org_openmrs_module_webservices_rest_web_v1_0_controller_requires_SPRING_APPLICATION_8
portin " " as org_openmrs_module_webservices_rest_web_v1_0_controller_requires_SPRING_APPLICATION_12
portin " " as org_openmrs_module_webservices_rest_web_v1_0_controller_requires_SPRING_APPLICATION_18
portin " " as org_openmrs_module_webservices_rest_web_v1_0_controller_requires_SPRING_APPLICATION_22
portin " " as org_openmrs_module_webservices_rest_web_v1_0_controller_requires_SPRING_APPLICATION_27
portin " " as org_openmrs_module_webservices_rest_web_v1_0_controller_requires_SPRING_APPLICATION_21
portin " " as org_openmrs_module_webservices_rest_web_v1_0_controller_requires_SPRING_APPLICATION_26
portin " " as org_openmrs_module_webservices_rest_web_v1_0_controller_requires_SPRING_APPLICATION_10
portin " " as org_openmrs_module_webservices_rest_web_v1_0_controller_requires_SPRING_APPLICATION_15
portin " " as org_openmrs_module_webservices_rest_web_v1_0_controller_requires_SPRING_APPLICATION_4
[org_openmrs_module_webservices_rest_web_v1_0_controller_openmrs1_8_HL7MessageController1_8]..>[org_openmrs_module_webservices_rest_web_v1_0_controller_MainResourceController] : requires
[org_openmrs_module_webservices_rest_web_v1_0_controller_MainSubResourceController]..>[org_openmrs_module_webservices_rest_web_v1_0_controller_BaseUriSetup] : requires
[org_openmrs_module_webservices_rest_web_v1_0_controller_MainResourceController]..>[org_openmrs_module_webservices_rest_web_v1_0_controller_BaseUriSetup] : requires
"org_openmrs_module_webservices_rest_web_v1_0_controller_requires_SPRING_APPLICATION_6"--[org_openmrs_module_webservices_rest_web_v1_0_controller_MainResourceController]
"org_openmrs_module_webservices_rest_web_v1_0_controller_requires_SPRING_APPLICATION_16"--[org_openmrs_module_webservices_rest_web_v1_0_controller_MainSubResourceController]
"org_openmrs_module_webservices_rest_web_v1_0_controller_requires_SPRING_APPLICATION_14"--[org_openmrs_module_webservices_rest_web_v1_0_controller_MainSubResourceController]
"org_openmrs_module_webservices_rest_web_v1_0_controller_requires_SPRING_APPLICATION_rest_v1_hl7"--[org_openmrs_module_webservices_rest_web_v1_0_controller_openmrs1_8_HL7MessageController1_8]
"org_openmrs_module_webservices_rest_web_v1_0_controller_requires_SPRING_APPLICATION_21"--[org_openmrs_module_webservices_rest_web_v1_0_controller_MainSubResourceController]
"org_openmrs_module_webservices_rest_web_v1_0_controller_requires_SPRING_APPLICATION_4"--[org_openmrs_module_webservices_rest_web_v1_0_controller_MainSubResourceController]
"org_openmrs_module_webservices_rest_web_v1_0_controller_requires_SPRING_APPLICATION_26"--[org_openmrs_module_webservices_rest_web_v1_0_controller_MainResourceController]
"org_openmrs_module_webservices_rest_web_v1_0_controller_requires_SPRING_APPLICATION_22"--[org_openmrs_module_webservices_rest_web_v1_0_controller_MainResourceController]
"org_openmrs_module_webservices_rest_web_v1_0_controller_requires_SPRING_APPLICATION_32"--[org_openmrs_module_webservices_rest_web_v1_0_controller_MainResourceController]
"org_openmrs_module_webservices_rest_web_v1_0_controller_requires_SPRING_APPLICATION_18"--[org_openmrs_module_webservices_rest_web_v1_0_controller_MainResourceController]
"org_openmrs_module_webservices_rest_web_v1_0_controller_requires_SPRING_APPLICATION_15"--[org_openmrs_module_webservices_rest_web_v1_0_controller_MainSubResourceController]
"org_openmrs_module_webservices_rest_web_v1_0_controller_requires_SPRING_APPLICATION_27"--[org_openmrs_module_webservices_rest_web_v1_0_controller_MainResourceController]
"org_openmrs_module_webservices_rest_web_v1_0_controller_requires_SPRING_APPLICATION_12"--[org_openmrs_module_webservices_rest_web_v1_0_controller_MainSubResourceController]
"org_openmrs_module_webservices_rest_web_v1_0_controller_requires_SPRING_APPLICATION_10"--[org_openmrs_module_webservices_rest_web_v1_0_controller_MainSubResourceController]
"org_openmrs_module_webservices_rest_web_v1_0_controller_requires_SPRING_APPLICATION_8"--[org_openmrs_module_webservices_rest_web_v1_0_controller_MainSubResourceController]
"org_openmrs_module_webservices_rest_web_v1_0_controller_requires_SPRING_APPLICATION_13"--[org_openmrs_module_webservices_rest_web_v1_0_controller_MainResourceController]
"org_openmrs_module_webservices_rest_web_v1_0_controller_requires_SPRING_APPLICATION_11"--[org_openmrs_module_webservices_rest_web_v1_0_controller_MainSubResourceController]
}
interface "SPRING-APPLICATION/$10" as interface.SPRING_APPLICATION_10
interface.SPRING_APPLICATION_10--"org_openmrs_module_webservices_rest_web_v1_0_controller_requires_SPRING_APPLICATION_10"
interface "SPRING-APPLICATION/$11" as interface.SPRING_APPLICATION_11
interface.SPRING_APPLICATION_11--"org_openmrs_module_webservices_rest_web_v1_0_controller_requires_SPRING_APPLICATION_11"
interface "SPRING-APPLICATION/$12" as interface.SPRING_APPLICATION_12
interface.SPRING_APPLICATION_12--"org_openmrs_module_webservices_rest_web_v1_0_controller_requires_SPRING_APPLICATION_12"
interface "SPRING-APPLICATION/$13" as interface.SPRING_APPLICATION_13
interface.SPRING_APPLICATION_13--"org_openmrs_module_webservices_rest_web_v1_0_controller_requires_SPRING_APPLICATION_13"
interface "SPRING-APPLICATION/$14" as interface.SPRING_APPLICATION_14
interface.SPRING_APPLICATION_14--"org_openmrs_module_webservices_rest_web_v1_0_controller_requires_SPRING_APPLICATION_14"
interface "SPRING-APPLICATION/$15" as interface.SPRING_APPLICATION_15
interface.SPRING_APPLICATION_15--"org_openmrs_module_webservices_rest_web_v1_0_controller_requires_SPRING_APPLICATION_15"
interface "SPRING-APPLICATION/$16" as interface.SPRING_APPLICATION_16
interface.SPRING_APPLICATION_16--"org_openmrs_module_webservices_rest_web_v1_0_controller_requires_SPRING_APPLICATION_16"
interface "SPRING-APPLICATION/$18" as interface.SPRING_APPLICATION_18
interface.SPRING_APPLICATION_18--"org_openmrs_module_webservices_rest_web_v1_0_controller_requires_SPRING_APPLICATION_18"
interface "SPRING-APPLICATION/$21" as interface.SPRING_APPLICATION_21
interface.SPRING_APPLICATION_21--"org_openmrs_module_webservices_rest_web_v1_0_controller_requires_SPRING_APPLICATION_21"
interface "SPRING-APPLICATION/$22" as interface.SPRING_APPLICATION_22
interface.SPRING_APPLICATION_22--"org_openmrs_module_webservices_rest_web_v1_0_controller_requires_SPRING_APPLICATION_22"
interface "SPRING-APPLICATION/$26" as interface.SPRING_APPLICATION_26
interface.SPRING_APPLICATION_26--"org_openmrs_module_webservices_rest_web_v1_0_controller_requires_SPRING_APPLICATION_26"
interface "SPRING-APPLICATION/$27" as interface.SPRING_APPLICATION_27
interface.SPRING_APPLICATION_27--"org_openmrs_module_webservices_rest_web_v1_0_controller_requires_SPRING_APPLICATION_27"
interface "SPRING-APPLICATION/$32" as interface.SPRING_APPLICATION_32
interface.SPRING_APPLICATION_32--"org_openmrs_module_webservices_rest_web_v1_0_controller_requires_SPRING_APPLICATION_32"
interface "SPRING-APPLICATION/$4" as interface.SPRING_APPLICATION_4
interface.SPRING_APPLICATION_4--"org_openmrs_module_webservices_rest_web_v1_0_controller_requires_SPRING_APPLICATION_4"
interface "SPRING-APPLICATION/$6" as interface.SPRING_APPLICATION_6
interface.SPRING_APPLICATION_6--"org_openmrs_module_webservices_rest_web_v1_0_controller_requires_SPRING_APPLICATION_6"
interface "SPRING-APPLICATION/$8" as interface.SPRING_APPLICATION_8
interface.SPRING_APPLICATION_8--"org_openmrs_module_webservices_rest_web_v1_0_controller_requires_SPRING_APPLICATION_8"
interface "SPRING-APPLICATION/rest/v1/hl7" as interface.SPRING_APPLICATION_rest_v1_hl7
interface.SPRING_APPLICATION_rest_v1_hl7--"org_openmrs_module_webservices_rest_web_v1_0_controller_requires_SPRING_APPLICATION_rest_v1_hl7"
component "org_openmrs_module_webservices_rest_web_v1_0_controller_BaseRestController\n\n\n\n\n\n" {
[org_openmrs_module_webservices_rest_web_v1_0_controller_BaseRestController]
}
component "org_openmrs_module_webservices_rest_web_v1_0_controller_UnknownResourceController\n\n\n\n\n\n" {
[org_openmrs_module_webservices_rest_web_v1_0_controller_UnknownResourceController]
portin " " as org_openmrs_module_webservices_rest_web_v1_0_controller_UnknownResourceController_requires_SPRING_APPLICATION_rest_unknownResource
"org_openmrs_module_webservices_rest_web_v1_0_controller_UnknownResourceController_requires_SPRING_APPLICATION_rest_unknownResource"--[org_openmrs_module_webservices_rest_web_v1_0_controller_UnknownResourceController]
}
interface "SPRING-APPLICATION/rest/unknownResource" as interface.SPRING_APPLICATION_rest_unknownResource
interface.SPRING_APPLICATION_rest_unknownResource--"org_openmrs_module_webservices_rest_web_v1_0_controller_UnknownResourceController_requires_SPRING_APPLICATION_rest_unknownResource"
component "org_openmrs_module_webservices_rest_web_v1_0_controller_openmrs1_8_ChangePasswordController1_8\n\n\n\n\n\n" {
[org_openmrs_module_webservices_rest_web_v1_0_controller_openmrs1_8_ChangePasswordController1_8]
portin " " as org_openmrs_module_webservices_rest_web_v1_0_controller_openmrs1_8_ChangePasswordController1_8_requires_SPRING_APPLICATION_19
portin " " as org_openmrs_module_webservices_rest_web_v1_0_controller_openmrs1_8_ChangePasswordController1_8_requires_SPRING_APPLICATION_2
"org_openmrs_module_webservices_rest_web_v1_0_controller_openmrs1_8_ChangePasswordController1_8_requires_SPRING_APPLICATION_19"--[org_openmrs_module_webservices_rest_web_v1_0_controller_openmrs1_8_ChangePasswordController1_8]
"org_openmrs_module_webservices_rest_web_v1_0_controller_openmrs1_8_ChangePasswordController1_8_requires_SPRING_APPLICATION_2"--[org_openmrs_module_webservices_rest_web_v1_0_controller_openmrs1_8_ChangePasswordController1_8]
}
interface "SPRING-APPLICATION/$19" as interface.SPRING_APPLICATION_19
interface.SPRING_APPLICATION_19--"org_openmrs_module_webservices_rest_web_v1_0_controller_openmrs1_8_ChangePasswordController1_8_requires_SPRING_APPLICATION_19"
interface "SPRING-APPLICATION/$2" as interface.SPRING_APPLICATION_2
interface.SPRING_APPLICATION_2--"org_openmrs_module_webservices_rest_web_v1_0_controller_openmrs1_8_ChangePasswordController1_8_requires_SPRING_APPLICATION_2"
component "org_openmrs_module_webservices_rest_web_v1_0_controller_openmrs1_8_ObsComplexValueController1_8\n\n\n\n\n\n" {
[org_openmrs_module_webservices_rest_web_v1_0_controller_openmrs1_8_ObsComplexValueController1_8]
portin " " as org_openmrs_module_webservices_rest_web_v1_0_controller_openmrs1_8_ObsComplexValueController1_8_requires_SPRING_APPLICATION_value
"org_openmrs_module_webservices_rest_web_v1_0_controller_openmrs1_8_ObsComplexValueController1_8_requires_SPRING_APPLICATION_value"--[org_openmrs_module_webservices_rest_web_v1_0_controller_openmrs1_8_ObsComplexValueController1_8]
}
interface "SPRING-APPLICATION/*/value" as interface.SPRING_APPLICATION_value
interface.SPRING_APPLICATION_value--"org_openmrs_module_webservices_rest_web_v1_0_controller_openmrs1_8_ObsComplexValueController1_8_requires_SPRING_APPLICATION_value"
component "org_openmrs_module_webservices_rest_web_v1_0_controller_openmrs1_9\n\n\n\n\n\n" {
[org_openmrs_module_webservices_rest_web_v1_0_controller_openmrs1_9_FormResourceController1_9]
[org_openmrs_module_webservices_rest_web_v1_0_controller_openmrs1_9_ClobDatatypeStorageController]
portin " " as org_openmrs_module_webservices_rest_web_v1_0_controller_openmrs1_9_requires_SPRING_APPLICATION_34
portin " " as org_openmrs_module_webservices_rest_web_v1_0_controller_openmrs1_9_requires_SPRING_APPLICATION_35
portin " " as org_openmrs_module_webservices_rest_web_v1_0_controller_openmrs1_9_requires_SPRING_APPLICATION_rest_v1_form_value
portin " " as org_openmrs_module_webservices_rest_web_v1_0_controller_openmrs1_9_requires_SPRING_APPLICATION_3
[org_openmrs_module_webservices_rest_web_v1_0_controller_openmrs1_9_FormResourceController1_9]..>[org_openmrs_module_webservices_rest_web_v1_0_controller_openmrs1_9_ClobDatatypeStorageController] : requires
"org_openmrs_module_webservices_rest_web_v1_0_controller_openmrs1_9_requires_SPRING_APPLICATION_3"--[org_openmrs_module_webservices_rest_web_v1_0_controller_openmrs1_9_ClobDatatypeStorageController]
"org_openmrs_module_webservices_rest_web_v1_0_controller_openmrs1_9_requires_SPRING_APPLICATION_34"--[org_openmrs_module_webservices_rest_web_v1_0_controller_openmrs1_9_ClobDatatypeStorageController]
"org_openmrs_module_webservices_rest_web_v1_0_controller_openmrs1_9_requires_SPRING_APPLICATION_rest_v1_form_value"--[org_openmrs_module_webservices_rest_web_v1_0_controller_openmrs1_9_FormResourceController1_9]
"org_openmrs_module_webservices_rest_web_v1_0_controller_openmrs1_9_requires_SPRING_APPLICATION_35"--[org_openmrs_module_webservices_rest_web_v1_0_controller_openmrs1_9_ClobDatatypeStorageController]
}
interface "SPRING-APPLICATION/$34" as interface.SPRING_APPLICATION_34
interface.SPRING_APPLICATION_34--"org_openmrs_module_webservices_rest_web_v1_0_controller_openmrs1_9_requires_SPRING_APPLICATION_34"
interface "SPRING-APPLICATION/$35" as interface.SPRING_APPLICATION_35
interface.SPRING_APPLICATION_35--"org_openmrs_module_webservices_rest_web_v1_0_controller_openmrs1_9_requires_SPRING_APPLICATION_35"
interface "SPRING-APPLICATION/$3" as interface.SPRING_APPLICATION_3
interface.SPRING_APPLICATION_3--"org_openmrs_module_webservices_rest_web_v1_0_controller_openmrs1_9_requires_SPRING_APPLICATION_3"
interface "SPRING-APPLICATION/rest/v1/form/*/value" as interface.SPRING_APPLICATION_rest_v1_form_value
interface.SPRING_APPLICATION_rest_v1_form_value--"org_openmrs_module_webservices_rest_web_v1_0_controller_openmrs1_9_requires_SPRING_APPLICATION_rest_v1_form_value"
component "org_openmrs_module_webservices_rest_web_v1_0_controller_openmrs1_9_ConceptReferenceController1_9\n\n\n\n\n\n" {
[org_openmrs_module_webservices_rest_web_v1_0_controller_openmrs1_9_ConceptReferenceController1_9]
portin " " as org_openmrs_module_webservices_rest_web_v1_0_controller_openmrs1_9_ConceptReferenceController1_9_requires_SPRING_APPLICATION_36
"org_openmrs_module_webservices_rest_web_v1_0_controller_openmrs1_9_ConceptReferenceController1_9_requires_SPRING_APPLICATION_36"--[org_openmrs_module_webservices_rest_web_v1_0_controller_openmrs1_9_ConceptReferenceController1_9]
}
interface "SPRING-APPLICATION/$36" as interface.SPRING_APPLICATION_36
interface.SPRING_APPLICATION_36--"org_openmrs_module_webservices_rest_web_v1_0_controller_openmrs1_9_ConceptReferenceController1_9_requires_SPRING_APPLICATION_36"
component "org_openmrs_module_webservices_rest_web_v1_0_controller_openmrs1_9_SessionController1_9\n\n\n\n\n\n" {
[org_openmrs_module_webservices_rest_web_v1_0_controller_openmrs1_9_SessionController1_9]
portin " " as org_openmrs_module_webservices_rest_web_v1_0_controller_openmrs1_9_SessionController1_9_requires_SPRING_APPLICATION_20
portin " " as org_openmrs_module_webservices_rest_web_v1_0_controller_openmrs1_9_SessionController1_9_requires_SPRING_APPLICATION_7
portin " " as org_openmrs_module_webservices_rest_web_v1_0_controller_openmrs1_9_SessionController1_9_requires_SPRING_APPLICATION_25
"org_openmrs_module_webservices_rest_web_v1_0_controller_openmrs1_9_SessionController1_9_requires_SPRING_APPLICATION_7"--[org_openmrs_module_webservices_rest_web_v1_0_controller_openmrs1_9_SessionController1_9]
"org_openmrs_module_webservices_rest_web_v1_0_controller_openmrs1_9_SessionController1_9_requires_SPRING_APPLICATION_20"--[org_openmrs_module_webservices_rest_web_v1_0_controller_openmrs1_9_SessionController1_9]
"org_openmrs_module_webservices_rest_web_v1_0_controller_openmrs1_9_SessionController1_9_requires_SPRING_APPLICATION_25"--[org_openmrs_module_webservices_rest_web_v1_0_controller_openmrs1_9_SessionController1_9]
}
interface "SPRING-APPLICATION/$20" as interface.SPRING_APPLICATION_20
interface.SPRING_APPLICATION_20--"org_openmrs_module_webservices_rest_web_v1_0_controller_openmrs1_9_SessionController1_9_requires_SPRING_APPLICATION_20"
interface "SPRING-APPLICATION/$25" as interface.SPRING_APPLICATION_25
interface.SPRING_APPLICATION_25--"org_openmrs_module_webservices_rest_web_v1_0_controller_openmrs1_9_SessionController1_9_requires_SPRING_APPLICATION_25"
interface "SPRING-APPLICATION/$7" as interface.SPRING_APPLICATION_7
interface.SPRING_APPLICATION_7--"org_openmrs_module_webservices_rest_web_v1_0_controller_openmrs1_9_SessionController1_9_requires_SPRING_APPLICATION_7"
component "org_openmrs_module_webservices_rest_web_v1_0_controller_openmrs2_0_AddressTemplateController2_0\n\n\n\n\n\n" {
[org_openmrs_module_webservices_rest_web_v1_0_controller_openmrs2_0_AddressTemplateController2_0]
portin " " as org_openmrs_module_webservices_rest_web_v1_0_controller_openmrs2_0_AddressTemplateController2_0_requires_SPRING_APPLICATION_17
"org_openmrs_module_webservices_rest_web_v1_0_controller_openmrs2_0_AddressTemplateController2_0_requires_SPRING_APPLICATION_17"--[org_openmrs_module_webservices_rest_web_v1_0_controller_openmrs2_0_AddressTemplateController2_0]
}
interface "SPRING-APPLICATION/$17" as interface.SPRING_APPLICATION_17
interface.SPRING_APPLICATION_17--"org_openmrs_module_webservices_rest_web_v1_0_controller_openmrs2_0_AddressTemplateController2_0_requires_SPRING_APPLICATION_17"
component "org_openmrs_module_webservices_rest_web_v1_0_controller_openmrs2_0_ClearDbCacheController2_0\n\n\n\n\n\n" {
[org_openmrs_module_webservices_rest_web_v1_0_controller_openmrs2_0_ClearDbCacheController2_0]
portin " " as org_openmrs_module_webservices_rest_web_v1_0_controller_openmrs2_0_ClearDbCacheController2_0_requires_SPRING_APPLICATION_37
"org_openmrs_module_webservices_rest_web_v1_0_controller_openmrs2_0_ClearDbCacheController2_0_requires_SPRING_APPLICATION_37"--[org_openmrs_module_webservices_rest_web_v1_0_controller_openmrs2_0_ClearDbCacheController2_0]
}
interface "SPRING-APPLICATION/$37" as interface.SPRING_APPLICATION_37
interface.SPRING_APPLICATION_37--"org_openmrs_module_webservices_rest_web_v1_0_controller_openmrs2_0_ClearDbCacheController2_0_requires_SPRING_APPLICATION_37"
component "org_openmrs_module_webservices_rest_web_v1_0_controller_openmrs2_0_ImplementationIdController2_0\n\n\n\n\n\n" {
[org_openmrs_module_webservices_rest_web_v1_0_controller_openmrs2_0_ImplementationIdController2_0]
portin " " as org_openmrs_module_webservices_rest_web_v1_0_controller_openmrs2_0_ImplementationIdController2_0_requires_SPRING_APPLICATION_9
portin " " as org_openmrs_module_webservices_rest_web_v1_0_controller_openmrs2_0_ImplementationIdController2_0_requires_SPRING_APPLICATION_24
"org_openmrs_module_webservices_rest_web_v1_0_controller_openmrs2_0_ImplementationIdController2_0_requires_SPRING_APPLICATION_9"--[org_openmrs_module_webservices_rest_web_v1_0_controller_openmrs2_0_ImplementationIdController2_0]
"org_openmrs_module_webservices_rest_web_v1_0_controller_openmrs2_0_ImplementationIdController2_0_requires_SPRING_APPLICATION_24"--[org_openmrs_module_webservices_rest_web_v1_0_controller_openmrs2_0_ImplementationIdController2_0]
}
interface "SPRING-APPLICATION/$24" as interface.SPRING_APPLICATION_24
interface.SPRING_APPLICATION_24--"org_openmrs_module_webservices_rest_web_v1_0_controller_openmrs2_0_ImplementationIdController2_0_requires_SPRING_APPLICATION_24"
interface "SPRING-APPLICATION/$9" as interface.SPRING_APPLICATION_9
interface.SPRING_APPLICATION_9--"org_openmrs_module_webservices_rest_web_v1_0_controller_openmrs2_0_ImplementationIdController2_0_requires_SPRING_APPLICATION_9"
component "org_openmrs_module_webservices_rest_web_v1_0_controller_openmrs2_0_LocaleAndThemeConfigurationController2_0\n\n\n\n\n\n" {
[org_openmrs_module_webservices_rest_web_v1_0_controller_openmrs2_0_LocaleAndThemeConfigurationController2_0]
portin " " as org_openmrs_module_webservices_rest_web_v1_0_controller_openmrs2_0_LocaleAndThemeConfigurationController2_0_requires_SPRING_APPLICATION_38
portin " " as org_openmrs_module_webservices_rest_web_v1_0_controller_openmrs2_0_LocaleAndThemeConfigurationController2_0_requires_SPRING_APPLICATION_31
"org_openmrs_module_webservices_rest_web_v1_0_controller_openmrs2_0_LocaleAndThemeConfigurationController2_0_requires_SPRING_APPLICATION_38"--[org_openmrs_module_webservices_rest_web_v1_0_controller_openmrs2_0_LocaleAndThemeConfigurationController2_0]
"org_openmrs_module_webservices_rest_web_v1_0_controller_openmrs2_0_LocaleAndThemeConfigurationController2_0_requires_SPRING_APPLICATION_31"--[org_openmrs_module_webservices_rest_web_v1_0_controller_openmrs2_0_LocaleAndThemeConfigurationController2_0]
}
interface "SPRING-APPLICATION/$31" as interface.SPRING_APPLICATION_31
interface.SPRING_APPLICATION_31--"org_openmrs_module_webservices_rest_web_v1_0_controller_openmrs2_0_LocaleAndThemeConfigurationController2_0_requires_SPRING_APPLICATION_31"
interface "SPRING-APPLICATION/$38" as interface.SPRING_APPLICATION_38
interface.SPRING_APPLICATION_38--"org_openmrs_module_webservices_rest_web_v1_0_controller_openmrs2_0_LocaleAndThemeConfigurationController2_0_requires_SPRING_APPLICATION_38"
component "org_openmrs_module_webservices_rest_web_v1_0_controller_openmrs2_0_LoggedInUsersController2_0\n\n\n\n\n\n" {
[org_openmrs_module_webservices_rest_web_v1_0_controller_openmrs2_0_LoggedInUsersController2_0]
portin " " as org_openmrs_module_webservices_rest_web_v1_0_controller_openmrs2_0_LoggedInUsersController2_0_requires_SPRING_APPLICATION_28
"org_openmrs_module_webservices_rest_web_v1_0_controller_openmrs2_0_LoggedInUsersController2_0_requires_SPRING_APPLICATION_28"--[org_openmrs_module_webservices_rest_web_v1_0_controller_openmrs2_0_LoggedInUsersController2_0]
}
interface "SPRING-APPLICATION/$28" as interface.SPRING_APPLICATION_28
interface.SPRING_APPLICATION_28--"org_openmrs_module_webservices_rest_web_v1_0_controller_openmrs2_0_LoggedInUsersController2_0_requires_SPRING_APPLICATION_28"
component "org_openmrs_module_webservices_rest_web_v1_0_controller_openmrs2_0_NameTemplateController2_0\n\n\n\n\n\n" {
[org_openmrs_module_webservices_rest_web_v1_0_controller_openmrs2_0_NameTemplateController2_0]
portin " " as org_openmrs_module_webservices_rest_web_v1_0_controller_openmrs2_0_NameTemplateController2_0_requires_SPRING_APPLICATION_29
"org_openmrs_module_webservices_rest_web_v1_0_controller_openmrs2_0_NameTemplateController2_0_requires_SPRING_APPLICATION_29"--[org_openmrs_module_webservices_rest_web_v1_0_controller_openmrs2_0_NameTemplateController2_0]
}
interface "SPRING-APPLICATION/$29" as interface.SPRING_APPLICATION_29
interface.SPRING_APPLICATION_29--"org_openmrs_module_webservices_rest_web_v1_0_controller_openmrs2_0_NameTemplateController2_0_requires_SPRING_APPLICATION_29"
component "org_openmrs_module_webservices_rest_web_v1_0_controller_openmrs2_0_SearchIndexController2_0\n\n\n\n\n\n" {
[org_openmrs_module_webservices_rest_web_v1_0_controller_openmrs2_0_SearchIndexController2_0]
portin " " as org_openmrs_module_webservices_rest_web_v1_0_controller_openmrs2_0_SearchIndexController2_0_requires_SPRING_APPLICATION_23
"org_openmrs_module_webservices_rest_web_v1_0_controller_openmrs2_0_SearchIndexController2_0_requires_SPRING_APPLICATION_23"--[org_openmrs_module_webservices_rest_web_v1_0_controller_openmrs2_0_SearchIndexController2_0]
}
interface "SPRING-APPLICATION/$23" as interface.SPRING_APPLICATION_23
interface.SPRING_APPLICATION_23--"org_openmrs_module_webservices_rest_web_v1_0_controller_openmrs2_0_SearchIndexController2_0_requires_SPRING_APPLICATION_23"
component "org_openmrs_module_webservices_rest_web_v1_0_controller_openmrs2_0_VisitConfigurationController2_0\n\n\n\n\n\n" {
[org_openmrs_module_webservices_rest_web_v1_0_controller_openmrs2_0_VisitConfigurationController2_0]
portin " " as org_openmrs_module_webservices_rest_web_v1_0_controller_openmrs2_0_VisitConfigurationController2_0_requires_SPRING_APPLICATION_
portin " " as org_openmrs_module_webservices_rest_web_v1_0_controller_openmrs2_0_VisitConfigurationController2_0_requires_SPRING_APPLICATION_30
"org_openmrs_module_webservices_rest_web_v1_0_controller_openmrs2_0_VisitConfigurationController2_0_requires_SPRING_APPLICATION_"--[org_openmrs_module_webservices_rest_web_v1_0_controller_openmrs2_0_VisitConfigurationController2_0]
"org_openmrs_module_webservices_rest_web_v1_0_controller_openmrs2_0_VisitConfigurationController2_0_requires_SPRING_APPLICATION_30"--[org_openmrs_module_webservices_rest_web_v1_0_controller_openmrs2_0_VisitConfigurationController2_0]
}
interface "SPRING-APPLICATION/$30" as interface.SPRING_APPLICATION_30
interface.SPRING_APPLICATION_30--"org_openmrs_module_webservices_rest_web_v1_0_controller_openmrs2_0_VisitConfigurationController2_0_requires_SPRING_APPLICATION_30"
interface "SPRING-APPLICATION/" as interface.SPRING_APPLICATION_
interface.SPRING_APPLICATION_--"org_openmrs_module_webservices_rest_web_v1_0_controller_openmrs2_0_VisitConfigurationController2_0_requires_SPRING_APPLICATION_"
component "org_openmrs_module_webservices_rest_web_v1_0_controller_openmrs2_2_PasswordResetController2_2\n\n\n\n\n\n" {
[org_openmrs_module_webservices_rest_web_v1_0_controller_openmrs2_2_PasswordResetController2_2]
portin " " as org_openmrs_module_webservices_rest_web_v1_0_controller_openmrs2_2_PasswordResetController2_2_requires_SPRING_APPLICATION_5
portin " " as org_openmrs_module_webservices_rest_web_v1_0_controller_openmrs2_2_PasswordResetController2_2_requires_SPRING_APPLICATION_33
"org_openmrs_module_webservices_rest_web_v1_0_controller_openmrs2_2_PasswordResetController2_2_requires_SPRING_APPLICATION_33"--[org_openmrs_module_webservices_rest_web_v1_0_controller_openmrs2_2_PasswordResetController2_2]
"org_openmrs_module_webservices_rest_web_v1_0_controller_openmrs2_2_PasswordResetController2_2_requires_SPRING_APPLICATION_5"--[org_openmrs_module_webservices_rest_web_v1_0_controller_openmrs2_2_PasswordResetController2_2]
}
interface "SPRING-APPLICATION/$33" as interface.SPRING_APPLICATION_33
interface.SPRING_APPLICATION_33--"org_openmrs_module_webservices_rest_web_v1_0_controller_openmrs2_2_PasswordResetController2_2_requires_SPRING_APPLICATION_33"
interface "SPRING-APPLICATION/$5" as interface.SPRING_APPLICATION_5
interface.SPRING_APPLICATION_5--"org_openmrs_module_webservices_rest_web_v1_0_controller_openmrs2_2_PasswordResetController2_2_requires_SPRING_APPLICATION_5"
interface "org_openmrs_api_DatatypeService" as interface.org_openmrs_api_DatatypeService
interface.org_openmrs_api_DatatypeService--[org_openmrs_api_DatatypeService_Provider]
interface "org_openmrs_api_FormService" as interface.org_openmrs_api_FormService
interface.org_openmrs_api_FormService--[org_openmrs_api_FormService_Provider]
interface "org_openmrs_api_ObsService" as interface.org_openmrs_api_ObsService
interface.org_openmrs_api_ObsService--[org_openmrs_api_ObsService_Provider]
interface "org_openmrs_api_UserService" as interface.org_openmrs_api_UserService
interface.org_openmrs_api_UserService--[org_openmrs_api_UserService_Provider]
interface "org_openmrs_module_webservices_rest_web_api_RestService" as interface.org_openmrs_module_webservices_rest_web_api_RestService
interface.org_openmrs_module_webservices_rest_web_api_RestService--[org_openmrs_module_webservices_rest_web_api_RestService_Provider]

@enduml
