@startuml
skinparam fixCircleLabelOverlapping true
skinparam componentStyle uml2
component "org_springframework_samples_petclinic_api_boundary_web_ApiGatewayController\n\n\n\n\n\n" {
[org_springframework_samples_petclinic_api_boundary_web_ApiGatewayController]
portin " " as org_springframework_samples_petclinic_api_boundary_web_ApiGatewayController_requires_SPRING_APPLICATION_api_gateway_owners_GET_
"org_springframework_samples_petclinic_api_boundary_web_ApiGatewayController_requires_SPRING_APPLICATION_api_gateway_owners_GET_"--[org_springframework_samples_petclinic_api_boundary_web_ApiGatewayController]
}
interface "SPRING-APPLICATION/api/gateway/owners[GET]" as interface.SPRING_APPLICATION_api_gateway_owners_GET_
interface.SPRING_APPLICATION_api_gateway_owners_GET_--"org_springframework_samples_petclinic_api_boundary_web_ApiGatewayController_requires_SPRING_APPLICATION_api_gateway_owners_GET_"
component "org_springframework_samples_petclinic_customers\n\n\n\n\n\n" {
[org_springframework_samples_petclinic_customers_web_OwnerResource]
[org_springframework_samples_petclinic_customers_model_OwnerRepository]
[org_springframework_samples_petclinic_customers_model_PetRepository]
[org_springframework_samples_petclinic_customers_web_PetResource]
portin " " as org_springframework_samples_petclinic_customers_requires_SPRING_APPLICATION_owners_GET_POST_PUT_
portin " " as org_springframework_samples_petclinic_customers_requires_SPRING_APPLICATION_owners_pets_GET_POST_PUT_
portin " " as org_springframework_samples_petclinic_customers_requires_SPRING_APPLICATION_petTypes_GET_
[org_springframework_samples_petclinic_customers_web_PetResource]..>[org_springframework_samples_petclinic_customers_model_PetRepository] : requires
[org_springframework_samples_petclinic_customers_web_PetResource]..>[org_springframework_samples_petclinic_customers_model_OwnerRepository] : requires
[org_springframework_samples_petclinic_customers_web_OwnerResource]..>[org_springframework_samples_petclinic_customers_model_OwnerRepository] : requires
"org_springframework_samples_petclinic_customers_requires_SPRING_APPLICATION_owners_pets_GET_POST_PUT_"--[org_springframework_samples_petclinic_customers_web_PetResource]
"org_springframework_samples_petclinic_customers_requires_SPRING_APPLICATION_petTypes_GET_"--[org_springframework_samples_petclinic_customers_web_PetResource]
"org_springframework_samples_petclinic_customers_requires_SPRING_APPLICATION_owners_GET_POST_PUT_"--[org_springframework_samples_petclinic_customers_web_OwnerResource]
}
interface "SPRING-APPLICATION/owners[GET,POST,PUT]" as interface.SPRING_APPLICATION_owners_GET_POST_PUT_
interface.SPRING_APPLICATION_owners_GET_POST_PUT_--"org_springframework_samples_petclinic_customers_requires_SPRING_APPLICATION_owners_GET_POST_PUT_"
interface "SPRING-APPLICATION/owners/*/pets[GET,POST,PUT]" as interface.SPRING_APPLICATION_owners_pets_GET_POST_PUT_
interface.SPRING_APPLICATION_owners_pets_GET_POST_PUT_--"org_springframework_samples_petclinic_customers_requires_SPRING_APPLICATION_owners_pets_GET_POST_PUT_"
interface "SPRING-APPLICATION/petTypes[GET]" as interface.SPRING_APPLICATION_petTypes_GET_
interface.SPRING_APPLICATION_petTypes_GET_--"org_springframework_samples_petclinic_customers_requires_SPRING_APPLICATION_petTypes_GET_"
component "org_springframework_samples_petclinic_vets\n\n\n\n\n\n" {
[org_springframework_samples_petclinic_vets_web_VetResource]
[org_springframework_samples_petclinic_vets_model_VetRepository]
portin " " as org_springframework_samples_petclinic_vets_requires_SPRING_APPLICATION_vets_GET_
[org_springframework_samples_petclinic_vets_web_VetResource]..>[org_springframework_samples_petclinic_vets_model_VetRepository] : requires
"org_springframework_samples_petclinic_vets_requires_SPRING_APPLICATION_vets_GET_"--[org_springframework_samples_petclinic_vets_web_VetResource]
}
interface "SPRING-APPLICATION/vets[GET]" as interface.SPRING_APPLICATION_vets_GET_
interface.SPRING_APPLICATION_vets_GET_--"org_springframework_samples_petclinic_vets_requires_SPRING_APPLICATION_vets_GET_"
component "org_springframework_samples_petclinic_visits\n\n\n\n\n\n" {
[org_springframework_samples_petclinic_visits_model_VisitRepository]
[org_springframework_samples_petclinic_visits_web_VisitResource]
portin " " as org_springframework_samples_petclinic_visits_requires_SPRING_APPLICATION_owners_pets_visits_GET_POST_
portin " " as org_springframework_samples_petclinic_visits_requires_SPRING_APPLICATION_pets_visits_GET_
[org_springframework_samples_petclinic_visits_web_VisitResource]..>[org_springframework_samples_petclinic_visits_model_VisitRepository] : requires
"org_springframework_samples_petclinic_visits_requires_SPRING_APPLICATION_pets_visits_GET_"--[org_springframework_samples_petclinic_visits_web_VisitResource]
"org_springframework_samples_petclinic_visits_requires_SPRING_APPLICATION_owners_pets_visits_GET_POST_"--[org_springframework_samples_petclinic_visits_web_VisitResource]
}
interface "SPRING-APPLICATION/owners/*/pets/*/visits[GET,POST]" as interface.SPRING_APPLICATION_owners_pets_visits_GET_POST_
interface.SPRING_APPLICATION_owners_pets_visits_GET_POST_--"org_springframework_samples_petclinic_visits_requires_SPRING_APPLICATION_owners_pets_visits_GET_POST_"
interface "SPRING-APPLICATION/pets/visits[GET]" as interface.SPRING_APPLICATION_pets_visits_GET_
interface.SPRING_APPLICATION_pets_visits_GET_--"org_springframework_samples_petclinic_visits_requires_SPRING_APPLICATION_pets_visits_GET_"

@enduml
